# Blender v2.78 (sub 0) OBJ File: 'warpDrIve.blend'
# www.blender.org
mtllib ship_drIve.mtl
o Cylinder
v 0.000000 -0.500000 0.000000
v 0.000000 0.500000 0.000000
v 0.000000 -0.500000 -0.500000
v 0.000000 0.500000 -0.500000
v 0.097545 -0.500000 -0.490393
v 0.097545 0.500000 -0.490393
v 0.191342 -0.500000 -0.461940
v 0.191342 0.500000 -0.461940
v 0.277785 -0.500000 -0.415735
v 0.277785 0.500000 -0.415735
v 0.353553 -0.500000 -0.353553
v 0.353553 0.500000 -0.353553
v 0.415735 -0.500000 -0.277785
v 0.415735 0.500000 -0.277785
v 0.461940 -0.500000 -0.191342
v 0.461940 0.500000 -0.191342
v 0.490393 -0.500000 -0.097545
v 0.490393 0.500000 -0.097545
v 0.500000 -0.500000 -0.000000
v 0.500000 0.500000 -0.000000
v 0.490393 -0.500000 0.097545
v 0.490393 0.500000 0.097545
v 0.461940 -0.500000 0.191342
v 0.461940 0.500000 0.191342
v 0.415735 -0.500000 0.277785
v 0.415735 0.500000 0.277785
v 0.353553 -0.500000 0.353553
v 0.353553 0.500000 0.353553
v 0.277785 -0.500000 0.415735
v 0.277785 0.500000 0.415735
v 0.191342 -0.500000 0.461940
v 0.191342 0.500000 0.461940
v 0.097545 -0.500000 0.490393
v 0.097545 0.500000 0.490393
v -0.000000 -0.500000 0.500000
v -0.000000 0.500000 0.500000
v -0.097545 -0.500000 0.490393
v -0.097545 0.500000 0.490393
v -0.191342 -0.500000 0.461940
v -0.191342 0.500000 0.461940
v -0.277785 -0.500000 0.415735
v -0.277785 0.500000 0.415735
v -0.353554 -0.500000 0.353553
v -0.353554 0.500000 0.353553
v -0.415735 -0.500000 0.277785
v -0.415735 0.500000 0.277785
v -0.461940 -0.500000 0.191341
v -0.461940 0.500000 0.191341
v -0.490393 -0.500000 0.097545
v -0.490393 0.500000 0.097545
v -0.500000 -0.500000 -0.000000
v -0.500000 0.500000 -0.000000
v -0.490393 -0.500000 -0.097546
v -0.490393 0.500000 -0.097546
v -0.461940 -0.500000 -0.191342
v -0.461940 0.500000 -0.191342
v -0.415734 -0.500000 -0.277786
v -0.415734 0.500000 -0.277786
v -0.353553 -0.500000 -0.353554
v -0.353553 0.500000 -0.353554
v -0.277785 -0.500000 -0.415735
v -0.277785 0.500000 -0.415735
v -0.191341 -0.500000 -0.461940
v -0.191341 0.500000 -0.461940
v -0.097544 -0.500000 -0.490393
v -0.097544 0.500000 -0.490393
vt 0.0000 0.0000
vt 0.0000 0.0000
vt 0.0000 0.0000
vt 0.0000 0.0000
vt 0.0000 0.0000
vt 0.0000 0.0000
vt 0.0000 0.0000
vt 0.0000 0.0000
vt 0.0000 0.0000
vt 0.0000 0.0000
vt 0.0000 0.0000
vt 0.0000 0.0000
vt 0.0000 0.0000
vt 0.0000 0.0000
vt 0.0000 0.0000
vt 0.0000 0.0000
vt 0.0000 0.0000
vt 0.0000 0.0000
vt 0.0000 0.0000
vt 0.0000 0.0000
vt 0.0000 0.0000
vt 0.0000 0.0000
vt 0.0000 0.0000
vt 0.0000 0.0000
vt 0.0000 0.0000
vt 0.0000 0.0000
vt 0.0000 0.0000
vt 0.0000 0.0000
vt 0.0000 0.0000
vt 0.0000 0.0000
vt 0.0000 0.0000
vt 0.0000 0.0000
vt 0.0000 0.0000
vt 0.0000 0.0000
vt 0.0000 0.0000
vt 0.0000 0.0000
vt 0.0000 0.0000
vt 0.0000 0.0000
vt 0.0000 0.0000
vt 0.0000 0.0000
vt 0.0000 0.0000
vt 0.0000 0.0000
vt 0.0000 0.0000
vt 0.0000 0.0000
vt 0.0000 0.0000
vt 0.0000 0.0000
vt 0.0000 0.0000
vt 0.0000 0.0000
vt 0.0000 0.0000
vt 0.0000 0.0000
vt 0.0000 0.0000
vt 0.0000 0.0000
vt 0.0000 0.0000
vt 0.0000 0.0000
vt 0.0000 0.0000
vt 0.0000 0.0000
vt 0.0000 0.0000
vt 0.0000 0.0000
vt 0.0000 0.0000
vt 0.0000 0.0000
vt 0.0000 0.0000
vt 0.0000 0.0000
vt 0.0000 0.0000
vt 0.0000 0.0000
vt 0.0000 0.0000
vt 0.0000 0.0000
vt 0.6875 0.0000
vt 0.6875 1.0000
vt 0.6875 1.0000
vt 0.6875 0.0000
vt 0.6250 1.0000
vt 0.6250 0.0000
vt 0.6250 1.0000
vt 0.6250 0.0000
vt 0.5625 1.0000
vt 0.5625 0.0000
vt 0.5625 1.0000
vt 0.5625 0.0000
vt 0.5000 1.0000
vt 0.5000 0.0000
vt 0.5000 1.0000
vt 0.5000 0.0000
vt 0.4375 1.0000
vt 0.4375 0.0000
vt 0.4375 1.0000
vt 0.4375 0.0000
vt 0.3750 1.0000
vt 0.3750 0.0000
vt 0.3750 1.0000
vt 0.3750 0.0000
vt 0.3125 1.0000
vt 0.3125 0.0000
vt 0.3125 1.0000
vt 0.3125 0.0000
vt 0.2500 1.0000
vt 0.2500 0.0000
vt 0.2500 1.0000
vt 0.2500 0.0000
vt 0.1875 1.0000
vt 0.1875 0.0000
vt 0.1875 1.0000
vt 0.1875 0.0000
vt 0.1250 1.0000
vt 0.1250 0.0000
vt 0.1250 1.0000
vt 0.1250 0.0000
vt 0.0625 1.0000
vt 0.0625 0.0000
vt 0.0625 1.0000
vt 0.0625 0.0000
vt 0.0000 1.0000
vt 0.0000 1.0000
vt 1.0000 0.0000
vt 1.0000 1.0000
vt 0.9375 1.0000
vt 0.9375 0.0000
vt 0.9375 1.0000
vt 0.9375 0.0000
vt 0.8750 1.0000
vt 0.8750 0.0000
vt 0.8750 1.0000
vt 0.8750 0.0000
vt 0.8125 1.0000
vt 0.8125 0.0000
vt 0.8125 1.0000
vt 0.8125 0.0000
vt 0.7500 1.0000
vt 0.7500 0.0000
vt 0.7500 1.0000
vt 0.7500 0.0000
vn 0.0000 -1.0000 0.0000
vn 0.0000 1.0000 0.0000
vn 0.0980 0.0000 -0.9952
vn 0.2903 0.0000 -0.9569
vn 0.4714 0.0000 -0.8819
vn 0.6344 0.0000 -0.7730
vn 0.7730 0.0000 -0.6344
vn 0.8819 0.0000 -0.4714
vn 0.9569 0.0000 -0.2903
vn 0.9952 0.0000 -0.0980
vn 0.9952 0.0000 0.0980
vn 0.9569 0.0000 0.2903
vn 0.8819 0.0000 0.4714
vn 0.7730 0.0000 0.6344
vn 0.6344 0.0000 0.7730
vn 0.4714 0.0000 0.8819
vn 0.2903 0.0000 0.9569
vn 0.0980 0.0000 0.9952
vn -0.0980 0.0000 0.9952
vn -0.2903 0.0000 0.9569
vn -0.4714 0.0000 0.8819
vn -0.6344 0.0000 0.7730
vn -0.7730 0.0000 0.6344
vn -0.8819 0.0000 0.4714
vn -0.9569 0.0000 0.2903
vn -0.9952 0.0000 0.0980
vn -0.9952 0.0000 -0.0980
vn -0.9569 0.0000 -0.2903
vn -0.8819 0.0000 -0.4714
vn -0.7730 0.0000 -0.6344
vn -0.6344 0.0000 -0.7730
vn -0.4714 0.0000 -0.8819
vn -0.2903 0.0000 -0.9569
vn -0.0980 0.0000 -0.9952
usemtl Material.001
s off
f 1/1/1 3/2/1 5/3/1
f 2/4/2 6/5/2 4/6/2
f 1/1/1 5/3/1 7/7/1
f 2/4/2 8/8/2 6/5/2
f 1/1/1 7/7/1 9/9/1
f 2/4/2 10/10/2 8/8/2
f 1/1/1 9/9/1 11/11/1
f 2/4/2 12/12/2 10/10/2
f 1/1/1 11/11/1 13/13/1
f 2/4/2 14/14/2 12/12/2
f 1/1/1 13/13/1 15/15/1
f 2/4/2 16/16/2 14/14/2
f 1/1/1 15/15/1 17/17/1
f 2/4/2 18/18/2 16/16/2
f 1/1/1 17/17/1 19/19/1
f 2/4/2 20/20/2 18/18/2
f 1/1/1 19/19/1 21/21/1
f 2/4/2 22/22/2 20/20/2
f 1/1/1 21/21/1 23/23/1
f 2/4/2 24/24/2 22/22/2
f 1/1/1 23/23/1 25/25/1
f 2/4/2 26/26/2 24/24/2
f 1/1/1 25/25/1 27/27/1
f 2/4/2 28/28/2 26/26/2
f 1/1/1 27/27/1 29/29/1
f 2/4/2 30/30/2 28/28/2
f 1/1/1 29/29/1 31/31/1
f 2/4/2 32/32/2 30/30/2
f 1/1/1 31/31/1 33/33/1
f 2/4/2 34/34/2 32/32/2
f 1/1/1 33/33/1 35/35/1
f 2/4/2 36/36/2 34/34/2
f 1/1/1 35/35/1 37/37/1
f 2/4/2 38/38/2 36/36/2
f 1/1/1 37/37/1 39/39/1
f 2/4/2 40/40/2 38/38/2
f 1/1/1 39/39/1 41/41/1
f 2/4/2 42/42/2 40/40/2
f 1/1/1 41/41/1 43/43/1
f 2/4/2 44/44/2 42/42/2
f 1/1/1 43/43/1 45/45/1
f 2/4/2 46/46/2 44/44/2
f 1/1/1 45/45/1 47/47/1
f 2/4/2 48/48/2 46/46/2
f 1/1/1 47/47/1 49/49/1
f 2/4/2 50/50/2 48/48/2
f 1/1/1 49/49/1 51/51/1
f 2/4/2 52/52/2 50/50/2
f 1/1/1 51/51/1 53/53/1
f 2/4/2 54/54/2 52/52/2
f 1/1/1 53/53/1 55/55/1
f 2/4/2 56/56/2 54/54/2
f 1/1/1 55/55/1 57/57/1
f 2/4/2 58/58/2 56/56/2
f 1/1/1 57/57/1 59/59/1
f 2/4/2 60/60/2 58/58/2
f 1/1/1 59/59/1 61/61/1
f 2/4/2 62/62/2 60/60/2
f 1/1/1 61/61/1 63/63/1
f 2/4/2 64/64/2 62/62/2
f 1/1/1 63/63/1 65/65/1
f 2/4/2 66/66/2 64/64/2
f 1/1/1 65/65/1 3/2/1
f 2/4/2 4/6/2 66/66/2
usemtl Material.001_ship_drive
f 3/67/3 4/68/3 6/69/3 5/70/3
f 5/70/4 6/69/4 8/71/4 7/72/4
f 7/72/5 8/71/5 10/73/5 9/74/5
f 9/74/6 10/73/6 12/75/6 11/76/6
f 11/76/7 12/75/7 14/77/7 13/78/7
f 13/78/8 14/77/8 16/79/8 15/80/8
f 15/80/9 16/79/9 18/81/9 17/82/9
f 17/82/10 18/81/10 20/83/10 19/84/10
f 19/84/11 20/83/11 22/85/11 21/86/11
f 21/86/12 22/85/12 24/87/12 23/88/12
f 23/88/13 24/87/13 26/89/13 25/90/13
f 25/90/14 26/89/14 28/91/14 27/92/14
f 27/92/15 28/91/15 30/93/15 29/94/15
f 29/94/16 30/93/16 32/95/16 31/96/16
f 31/96/17 32/95/17 34/97/17 33/98/17
f 33/98/18 34/97/18 36/99/18 35/100/18
f 35/100/19 36/99/19 38/101/19 37/102/19
f 37/102/20 38/101/20 40/103/20 39/104/20
f 39/104/21 40/103/21 42/105/21 41/106/21
f 41/106/22 42/105/22 44/107/22 43/108/22
f 43/108/23 44/107/23 46/109/23 45/110/23
f 45/110/24 46/109/24 48/111/24 47/47/24
f 47/47/25 48/111/25 50/112/25 49/49/25
f 49/113/26 50/114/26 52/115/26 51/116/26
f 51/116/27 52/115/27 54/117/27 53/118/27
f 53/118/28 54/117/28 56/119/28 55/120/28
f 55/120/29 56/119/29 58/121/29 57/122/29
f 57/122/30 58/121/30 60/123/30 59/124/30
f 59/124/31 60/123/31 62/125/31 61/126/31
f 61/126/32 62/125/32 64/127/32 63/128/32
f 63/128/33 64/127/33 66/129/33 65/130/33
f 65/130/34 66/129/34 4/68/34 3/67/34
